<svg width="193" height="48" viewBox="0 0 193 48" fill="none" xmlns="http://www.w3.org/2000/svg">
<path d="M69.3739 29.08V34H48.8539C48.8806 32.7467 49.0406 31.6 49.3339 30.56C49.6539 29.4933 50.0139 28.6 50.4139 27.88C50.8406 27.16 51.4806 26.4 52.3339 25.6C53.1872 24.8 53.9339 24.16 54.5739 23.68C55.2406 23.2 56.2006 22.5333 57.4539 21.68C57.6139 21.5733 58.0406 21.2933 58.7339 20.84C59.4272 20.3867 59.9072 20.0667 60.1739 19.88C60.4406 19.6933 60.8406 19.3733 61.3739 18.92C61.9072 18.44 62.2806 18.0267 62.4939 17.68C62.7339 17.3333 62.9606 16.9067 63.1739 16.4C63.3872 15.8667 63.4939 15.32 63.4939 14.76C63.4939 13.5333 63.1206 12.56 62.3739 11.84C61.6539 11.0933 60.6939 10.72 59.4939 10.72C56.6139 10.72 55.0939 12.7467 54.9339 16.8H49.4939V16.2C49.4939 13.0267 50.4139 10.5067 52.2539 8.64C54.0939 6.74667 56.5739 5.8 59.6939 5.8C62.5206 5.8 64.8139 6.6 66.5739 8.2C68.3339 9.77333 69.2139 11.8267 69.2139 14.36C69.2139 16.4133 68.7472 18.0533 67.8139 19.28C66.8806 20.5067 65.4139 21.8 63.4139 23.16C63.1472 23.3467 62.6539 23.68 61.9339 24.16C61.2139 24.6133 60.6406 24.9867 60.2139 25.28C59.8139 25.5733 59.3206 25.9467 58.7339 26.4C58.1472 26.8533 57.6406 27.3067 57.2139 27.76C56.7872 28.1867 56.4272 28.6267 56.1339 29.08H69.3739ZM81.6405 5.84C83.1871 5.84 84.5605 6.13333 85.7605 6.72C86.9871 7.30667 87.9738 8.06667 88.7205 9C89.4671 9.93333 90.0805 11.04 90.5605 12.32C91.0671 13.6 91.4138 14.88 91.6005 16.16C91.7871 17.44 91.8805 18.7867 91.8805 20.2C91.8805 24.6533 90.9738 28.1467 89.1605 30.68C87.3471 33.2133 84.8538 34.48 81.6805 34.48C78.4271 34.48 75.8805 33.2267 74.0405 30.72C72.2271 28.1867 71.3205 24.68 71.3205 20.2C71.3205 18.4133 71.4938 16.7333 71.8405 15.16C72.1871 13.56 72.7338 12.04 73.4805 10.6C74.2271 9.13333 75.2938 7.97333 76.6805 7.12C78.0938 6.26666 79.7471 5.84 81.6405 5.84ZM81.6005 10.52C80.8538 10.52 80.2005 10.68 79.6405 11C79.0805 11.32 78.6271 11.8 78.2805 12.44C77.9605 13.0533 77.6938 13.6533 77.4805 14.24C77.2938 14.8 77.1605 15.5467 77.0805 16.48C77.0005 17.3867 76.9471 18.08 76.9205 18.56C76.9205 19.04 76.9205 19.68 76.9205 20.48C76.9205 26.7467 78.4938 29.88 81.6405 29.88C84.7338 29.88 86.2805 26.6533 86.2805 20.2C86.2805 16.8667 85.9071 14.4267 85.1605 12.88C84.4138 11.3067 83.2271 10.52 81.6005 10.52ZM103.867 5.84C105.414 5.84 106.787 6.13333 107.987 6.72C109.214 7.30667 110.2 8.06667 110.947 9C111.694 9.93333 112.307 11.04 112.787 12.32C113.294 13.6 113.64 14.88 113.827 16.16C114.014 17.44 114.107 18.7867 114.107 20.2C114.107 24.6533 113.2 28.1467 111.387 30.68C109.574 33.2133 107.08 34.48 103.907 34.48C100.654 34.48 98.107 33.2267 96.267 30.72C94.4537 28.1867 93.547 24.68 93.547 20.2C93.547 18.4133 93.7204 16.7333 94.067 15.16C94.4137 13.56 94.9604 12.04 95.707 10.6C96.4537 9.13333 97.5204 7.97333 98.907 7.12C100.32 6.26666 101.974 5.84 103.867 5.84ZM103.827 10.52C103.08 10.52 102.427 10.68 101.867 11C101.307 11.32 100.854 11.8 100.507 12.44C100.187 13.0533 99.9204 13.6533 99.707 14.24C99.5204 14.8 99.387 15.5467 99.307 16.48C99.227 17.3867 99.1737 18.08 99.147 18.56C99.147 19.04 99.147 19.68 99.147 20.48C99.147 26.7467 100.72 29.88 103.867 29.88C106.96 29.88 108.507 26.6533 108.507 20.2C108.507 16.8667 108.134 14.4267 107.387 12.88C106.64 11.3067 105.454 10.52 103.827 10.52ZM123.654 27.76V32.84C123.654 35.16 123.134 36.9467 122.094 38.2C121.08 39.48 119.494 40.2933 117.334 40.64V37.84C119.12 37.3067 120.067 36.0267 120.174 34H117.334V27.76H123.654ZM137.226 5.84C138.773 5.84 140.146 6.13333 141.346 6.72C142.573 7.30667 143.56 8.06667 144.306 9C145.053 9.93333 145.666 11.04 146.146 12.32C146.653 13.6 147 14.88 147.186 16.16C147.373 17.44 147.466 18.7867 147.466 20.2C147.466 24.6533 146.56 28.1467 144.746 30.68C142.933 33.2133 140.44 34.48 137.266 34.48C134.013 34.48 131.466 33.2267 129.626 30.72C127.813 28.1867 126.906 24.68 126.906 20.2C126.906 18.4133 127.08 16.7333 127.426 15.16C127.773 13.56 128.32 12.04 129.066 10.6C129.813 9.13333 130.88 7.97333 132.266 7.12C133.68 6.26666 135.333 5.84 137.226 5.84ZM137.186 10.52C136.44 10.52 135.786 10.68 135.226 11C134.666 11.32 134.213 11.8 133.866 12.44C133.546 13.0533 133.28 13.6533 133.066 14.24C132.88 14.8 132.746 15.5467 132.666 16.48C132.586 17.3867 132.533 18.08 132.506 18.56C132.506 19.04 132.506 19.68 132.506 20.48C132.506 26.7467 134.08 29.88 137.226 29.88C140.32 29.88 141.866 26.6533 141.866 20.2C141.866 16.8667 141.493 14.4267 140.746 12.88C140 11.3067 138.813 10.52 137.186 10.52ZM159.453 5.84C161 5.84 162.373 6.13333 163.573 6.72C164.8 7.30667 165.786 8.06667 166.533 9C167.28 9.93333 167.893 11.04 168.373 12.32C168.88 13.6 169.226 14.88 169.413 16.16C169.6 17.44 169.693 18.7867 169.693 20.2C169.693 24.6533 168.786 28.1467 166.973 30.68C165.16 33.2133 162.666 34.48 159.493 34.48C156.24 34.48 153.693 33.2267 151.853 30.72C150.04 28.1867 149.133 24.68 149.133 20.2C149.133 18.4133 149.306 16.7333 149.653 15.16C150 13.56 150.546 12.04 151.293 10.6C152.04 9.13333 153.106 7.97333 154.493 7.12C155.906 6.26666 157.56 5.84 159.453 5.84ZM159.413 10.52C158.666 10.52 158.013 10.68 157.453 11C156.893 11.32 156.44 11.8 156.093 12.44C155.773 13.0533 155.506 13.6533 155.293 14.24C155.106 14.8 154.973 15.5467 154.893 16.48C154.813 17.3867 154.76 18.08 154.733 18.56C154.733 19.04 154.733 19.68 154.733 20.48C154.733 26.7467 156.306 29.88 159.453 29.88C162.546 29.88 164.093 26.6533 164.093 20.2C164.093 16.8667 163.72 14.4267 162.973 12.88C162.226 11.3067 161.04 10.52 159.413 10.52ZM181.68 5.84C183.226 5.84 184.6 6.13333 185.8 6.72C187.026 7.30667 188.013 8.06667 188.76 9C189.506 9.93333 190.12 11.04 190.6 12.32C191.106 13.6 191.453 14.88 191.64 16.16C191.826 17.44 191.92 18.7867 191.92 20.2C191.92 24.6533 191.013 28.1467 189.2 30.68C187.386 33.2133 184.893 34.48 181.72 34.48C178.466 34.48 175.92 33.2267 174.08 30.72C172.266 28.1867 171.36 24.68 171.36 20.2C171.36 18.4133 171.533 16.7333 171.88 15.16C172.226 13.56 172.773 12.04 173.52 10.6C174.266 9.13333 175.333 7.97333 176.72 7.12C178.133 6.26666 179.786 5.84 181.68 5.84ZM181.64 10.52C180.893 10.52 180.24 10.68 179.68 11C179.12 11.32 178.666 11.8 178.32 12.44C178 13.0533 177.733 13.6533 177.52 14.24C177.333 14.8 177.2 15.5467 177.12 16.48C177.04 17.3867 176.986 18.08 176.96 18.56C176.96 19.04 176.96 19.68 176.96 20.48C176.96 26.7467 178.533 29.88 181.68 29.88C184.773 29.88 186.32 26.6533 186.32 20.2C186.32 16.8667 185.946 14.4267 185.2 12.88C184.453 11.3067 183.266 10.52 181.64 10.52Z" fill="#EEEEEE"/>
<path d="M38.5145 22.0597H33.0542V16.9315H38.5145C39.3349 16.9315 40 16.2822 40 15.4803C40 14.6782 39.3349 14.0286 38.5145 14.0286H33.0542V6.91289C33.0542 5.87419 32.8442 5.1118 32.4301 4.64739C32.0366 4.20558 31.5192 4 30.8028 4C30.1191 4 29.6212 4.20416 29.2353 4.64321C28.8261 5.1081 28.6184 5.8719 28.6184 6.91337V14.0294H18.3473L13.9802 7.57147C13.6064 6.99513 13.255 6.45526 12.9137 5.93705C12.6065 5.47035 12.3068 5.09038 12.0237 4.80666C11.7731 4.55547 11.4876 4.36107 11.1535 4.21165C10.8384 4.07105 10.4377 4.00047 9.96369 4.00047C9.35909 4.00047 8.81027 4.16234 8.28474 4.49489C7.76469 4.82383 7.4052 5.2305 7.18564 5.73824C6.99292 6.22077 6.89096 6.96015 6.89096 7.91458V14.029H1.48494C0.664649 14.029 0 14.6787 0 15.4806C0 16.2826 0.664649 16.9319 1.48502 16.9319H6.89104V22.0606H1.48502C0.664649 22.0606 0 22.7101 0 23.5123C0 24.314 0.664649 24.963 1.48502 24.963H6.89104V33.0873C6.89104 34.0953 7.10778 34.85 7.53707 35.3295C7.94532 35.7868 8.46295 35.9991 9.16588 35.9991C9.84407 35.9991 10.3577 35.7858 10.7836 35.3277C11.2197 34.8584 11.4403 34.1042 11.4403 33.0874V24.963H20.7345L25.764 32.4997C26.1137 32.9979 26.4748 33.5008 26.8349 33.9939C27.1598 34.4366 27.5143 34.8268 27.8883 35.1526C28.2252 35.4474 28.5863 35.6633 28.9616 35.7951C29.348 35.9311 29.7997 36 30.3008 36C31.661 36 33.0541 35.5931 33.0541 32.5753V24.963H38.5143C39.3348 24.963 39.9998 24.3131 39.9998 23.5114C40 22.7097 39.3349 22.0597 38.5145 22.0597ZM28.6183 16.9314V22.0596H23.7788L20.3112 16.9314H28.6183ZM11.4404 11.0389L13.4361 14.0286H11.4404V11.0389ZM11.4404 22.0597V16.9315H15.374L18.7968 22.0597H11.4404ZM28.6183 29.2175L25.7421 24.963H28.6183V29.2175Z" fill="#EEEEEE"/>
</svg>
