<svg width="16" height="16" viewBox="0 0 16 16" fill="none" xmlns="http://www.w3.org/2000/svg">
<rect width="16" height="16" rx="8" fill="white"/>
<path d="M7.57647 8.35019V9.60643C7.10193 9.41409 6.59405 9.3551 6.0955 9.4344C5.59695 9.5137 5.12227 9.72898 4.71133 10.0622C4.30039 10.3954 3.96519 10.8367 3.73387 11.3492C3.50255 11.8617 3.38187 12.4303 3.38197 13.0073L2.33334 13.0067C2.33318 12.2727 2.47959 11.5484 2.76134 10.8894C3.04309 10.2303 3.45272 9.65388 3.95883 9.20434C4.46494 8.75479 5.0541 8.44404 5.68116 8.29588C6.30823 8.14772 6.95656 8.16669 7.57647 8.35019ZM6.52785 7.59765C4.78975 7.59765 3.38197 5.98376 3.38197 3.99121C3.38197 1.99865 4.78975 0.384766 6.52785 0.384766C8.26594 0.384766 9.67373 1.99865 9.67373 3.99121C9.67373 5.98376 8.26594 7.59765 6.52785 7.59765ZM6.52785 6.3955C7.68658 6.3955 8.6251 5.31958 8.6251 3.99121C8.6251 2.66283 7.68658 1.58691 6.52785 1.58691C5.36912 1.58691 4.4306 2.66283 4.4306 3.99121C4.4306 5.31958 5.36912 6.3955 6.52785 6.3955ZM12.197 10.5L12.2207 10.6205L12.2953 11L12.197 10.5L12.2485 10.8384L12.197 11V10.5Z" fill="#FAAD39"/>
<path d="M10.5 11L10.5 13L13 10.5L10.5 8L10.5 10L9 10L9 11L10.5 11Z" fill="#FAAD39"/>
</svg>
